<svg xmlns="http://www.w3.org/2000/svg" viewBox="0 0 2542 2595">
  <path fill="#FF5B00" d="M1892.94 1247.5l-212.82 -212.82c-0.12,0 -0.12,-0.12 -0.12,-0.12l-533.33 -533.33c-33.08,-33.08 -86.87,-33.08 -119.95,0l-212.81 212.81c-33.08,33.21 -33.08,86.87 0,120.07l473.42 473.3 -473.42 473.54c-33.21,33.08 -33.21,86.74 0,119.83l212.81 212.81c33.08,33.21 86.87,33.21 119.95,0l638.09 -637.96 108.18 -108.19c4.29,-4.29 8.09,-8.94 11.27,-13.97 21.32,-32.84 17.52,-77.19 -11.27,-105.98z"/>
  <path fill="#FF5B00" d="M1270.66 2361.45c-583.32,0 -1057.72,-474.4 -1057.72,-1057.72 0,-583.19 474.4,-1057.72 1057.72,-1057.72 583.2,0 1057.6,474.52 1057.6,1057.72 0,583.32 -474.4,1057.72 -1057.6,1057.72zm0 -2328.25c-701.8,0 -1270.66,568.86 -1270.66,1270.53 0,701.8 568.86,1270.66 1270.66,1270.66 701.67,0 1270.66,-568.86 1270.66,-1270.66 0,-701.67 -568.99,-1270.53 -1270.66,-1270.53z"/>
</svg>
